<svg width="121" height="25" viewBox="0 0 121 25" fill="none" xmlns="http://www.w3.org/2000/svg">
<path d="M0.456177 1.67437C0.456177 0.897488 1.1235 0.267699 1.94668 0.267699V0.267699C2.76987 0.267699 3.43719 0.897487 3.43719 1.67437V22.861C3.43719 23.6379 2.76987 24.2677 1.94668 24.2677V24.2677C1.1235 24.2677 0.456177 23.6379 0.456177 22.861V1.67437Z" fill="#47C1E7"/>
<path d="M6.54309 9.95017C6.54309 9.17329 7.21041 8.5435 8.0336 8.5435V8.5435C8.85678 8.5435 9.52411 9.17329 9.52411 9.95017V14.5852C9.52411 15.3621 8.85678 15.9919 8.0336 15.9919V15.9919C7.21041 15.9919 6.54309 15.3621 6.54309 14.5852V9.95017Z" fill="#47C1E7"/>
<path d="M12.6299 6.41668C12.6299 5.6398 13.2973 5.01001 14.1205 5.01001V5.01001C14.9436 5.01001 15.611 5.6398 15.611 6.41668V18.1187C15.611 18.8956 14.9436 19.5254 14.1205 19.5254V19.5254C13.2973 19.5254 12.6299 18.8956 12.6299 18.1187V6.41668Z" fill="#47C1E7"/>
<path d="M18.7168 1.67437C18.7168 0.897488 19.3841 0.267699 20.2073 0.267699V0.267699C21.0305 0.267699 21.6978 0.897487 21.6978 1.67437V22.861C21.6978 23.6379 21.0305 24.2677 20.2073 24.2677V24.2677C19.3841 24.2677 18.7168 23.6379 18.7168 22.861V1.67437Z" fill="#47C1E7"/>
<path d="M115.853 18.9918C114.884 18.9918 114.002 18.7677 113.207 18.3194C112.424 17.8711 111.803 17.2672 111.344 16.5076C110.884 15.7481 110.654 14.8951 110.654 13.9487C110.654 13.0024 110.871 12.1494 111.306 11.3898C111.754 10.6303 112.356 10.0263 113.114 9.57805C113.872 9.12978 114.717 8.90564 115.648 8.90564C116.58 8.90564 117.406 9.136 118.127 9.59673C118.847 10.0575 119.413 10.6801 119.823 11.4645C120.245 12.249 120.456 13.1393 120.456 14.1355V14.8079H113.263C113.375 15.1939 113.555 15.5426 113.803 15.8539C114.064 16.1652 114.381 16.408 114.754 16.5823C115.139 16.7567 115.549 16.8438 115.984 16.8438C116.419 16.8438 116.816 16.7754 117.176 16.6384C117.549 16.5014 117.866 16.3084 118.127 16.0594L119.804 17.591C119.208 18.0766 118.593 18.4315 117.959 18.6556C117.338 18.8798 116.636 18.9918 115.853 18.9918ZM113.226 12.9775H117.94C117.853 12.5915 117.692 12.2552 117.456 11.9689C117.232 11.67 116.959 11.4396 116.636 11.2778C116.325 11.1034 115.977 11.0163 115.592 11.0163C115.195 11.0163 114.835 11.0972 114.512 11.2591C114.201 11.421 113.934 11.6513 113.71 11.9502C113.487 12.2366 113.325 12.579 113.226 12.9775Z" fill="#47C1E7"/>
<path d="M104.861 18.9918C103.892 18.9918 103.01 18.7677 102.215 18.3194C101.433 17.8711 100.811 17.2672 100.352 16.5076C99.8921 15.7481 99.6623 14.8951 99.6623 13.9487C99.6623 13.0024 99.8797 12.1494 100.314 11.3898C100.762 10.6303 101.364 10.0263 102.122 9.57805C102.88 9.12978 103.725 8.90564 104.656 8.90564C105.588 8.90564 106.414 9.136 107.135 9.59673C107.856 10.0575 108.421 10.6801 108.831 11.4645C109.253 12.249 109.464 13.1393 109.464 14.1355V14.8079H102.271C102.383 15.1939 102.563 15.5426 102.812 15.8539C103.072 16.1652 103.389 16.408 103.762 16.5823C104.147 16.7567 104.557 16.8438 104.992 16.8438C105.427 16.8438 105.824 16.7754 106.185 16.6384C106.557 16.5014 106.874 16.3084 107.135 16.0594L108.812 17.591C108.216 18.0766 107.601 18.4315 106.967 18.6556C106.346 18.8798 105.644 18.9918 104.861 18.9918ZM102.234 12.9775H106.949C106.862 12.5915 106.7 12.2552 106.464 11.9689C106.24 11.67 105.967 11.4396 105.644 11.2778C105.334 11.1034 104.986 11.0163 104.601 11.0163C104.203 11.0163 103.843 11.0972 103.52 11.2591C103.209 11.421 102.942 11.6513 102.718 11.9502C102.495 12.2366 102.333 12.579 102.234 12.9775Z" fill="#47C1E7"/>
<path d="M89.0632 18.8051V9.07376H91.6162V9.87692C92.3492 9.21696 93.2561 8.88698 94.3369 8.88698C95.0947 8.88698 95.7594 9.05508 96.3309 9.39129C96.9148 9.71504 97.3682 10.1695 97.6912 10.7548C98.0142 11.3276 98.1757 12 98.1757 12.772V18.8051H95.6227V13.1456C95.6227 12.5105 95.4426 12.0124 95.0823 11.6513C94.722 11.2778 94.2313 11.091 93.6101 11.091C93.1753 11.091 92.7902 11.1782 92.4548 11.3525C92.1193 11.5144 91.8398 11.751 91.6162 12.0623V18.8051H89.0632Z" fill="#47C1E7"/>
<path d="M82.3133 18.9918C81.3442 18.9918 80.4684 18.7677 79.6857 18.3194C78.903 17.8712 78.2819 17.2672 77.8222 16.5077C77.3625 15.7481 77.1327 14.8951 77.1327 13.9487C77.1327 13.0024 77.3563 12.1494 77.8036 11.3898C78.2632 10.6178 78.8844 10.0077 79.6671 9.55939C80.4622 9.11111 81.3442 8.88698 82.3133 8.88698C83.2823 8.88698 84.1581 9.11111 84.9408 9.55939C85.7359 10.0077 86.3571 10.6178 86.8043 11.3898C87.264 12.1494 87.4938 13.0024 87.4938 13.9487C87.4938 14.8951 87.264 15.7481 86.8043 16.5077C86.3571 17.2672 85.7421 17.8712 84.9594 18.3194C84.1768 18.7677 83.2947 18.9918 82.3133 18.9918ZM82.3133 16.7691C82.8226 16.7691 83.2761 16.6446 83.6736 16.3956C84.0836 16.1465 84.4066 15.8103 84.6426 15.387C84.8911 14.9511 85.0153 14.4717 85.0153 13.9487C85.0153 13.4133 84.8911 12.9339 84.6426 12.5105C84.4066 12.0872 84.0836 11.751 83.6736 11.5019C83.2761 11.2404 82.8226 11.1097 82.3133 11.1097C81.8163 11.1097 81.3629 11.2404 80.9529 11.5019C80.5429 11.751 80.2199 12.0872 79.9839 12.5105C79.7478 12.9339 79.6298 13.4133 79.6298 13.9487C79.6298 14.4717 79.7478 14.9511 79.9839 15.387C80.2199 15.8103 80.5429 16.1465 80.9529 16.3956C81.3629 16.6446 81.8163 16.7691 82.3133 16.7691Z" fill="#47C1E7"/>
<path d="M60.6919 18.8051V9.07376H63.2449V9.82088C63.9406 9.19828 64.7854 8.88698 65.7793 8.88698C66.4129 8.88698 66.9781 9.01772 67.4751 9.27922C67.972 9.52826 68.382 9.88314 68.705 10.3439C69.1025 9.87069 69.5684 9.50958 70.1026 9.26054C70.6493 9.0115 71.2518 8.88698 71.9102 8.88698C72.6432 8.88698 73.283 9.05508 73.8297 9.39129C74.3887 9.71504 74.8235 10.1695 75.1341 10.7548C75.4571 11.3276 75.6186 12 75.6186 12.772V18.8051H73.0843V13.1456C73.0843 12.5105 72.9165 12.0124 72.5811 11.6513C72.2457 11.2778 71.7984 11.091 71.2394 11.091C70.8542 11.091 70.5002 11.1719 70.1772 11.3338C69.8666 11.4957 69.5995 11.7385 69.3759 12.0623C69.3883 12.1743 69.4007 12.2864 69.4131 12.3985C69.4256 12.5105 69.4318 12.6351 69.4318 12.772V18.8051H66.8788V13.1456C66.8788 12.5105 66.711 12.0124 66.3756 11.6513C66.0526 11.2778 65.6116 11.091 65.0525 11.091C64.6674 11.091 64.3195 11.1657 64.0089 11.3151C63.7108 11.4646 63.4561 11.6887 63.2449 11.9875V18.8051H60.6919Z" fill="#47C1E7"/>
<path d="M53.085 18.8051V9.07376H55.638V10.1571C55.9486 9.73372 56.3213 9.40997 56.7561 9.18583C57.1909 8.96169 57.6816 8.84962 58.2283 8.84962C58.7003 8.86208 59.0544 8.93679 59.2905 9.07376V11.3151C59.1041 11.228 58.8991 11.1657 58.6755 11.1284C58.4519 11.0785 58.222 11.0536 57.986 11.0536C57.4891 11.0536 57.0356 11.1782 56.6256 11.4272C56.2157 11.6762 55.8864 12.0311 55.638 12.4919V18.8051H53.085Z" fill="#47C1E7"/>
<path d="M45.8417 18.9732C45.146 18.9732 44.531 18.8486 43.9968 18.5996C43.4626 18.3381 43.0464 17.9832 42.7483 17.5349C42.4501 17.0867 42.301 16.5699 42.301 15.9847C42.301 15.0508 42.6489 14.3285 43.3446 13.818C44.0527 13.295 45.0218 13.0335 46.2517 13.0335C47.0965 13.0335 47.8916 13.1643 48.637 13.4258V12.716C48.637 12.1556 48.463 11.7323 48.1152 11.4459C47.7673 11.1595 47.258 11.0163 46.5871 11.0163C46.1771 11.0163 45.7361 11.0848 45.264 11.2217C44.7919 11.3463 44.2453 11.5455 43.6241 11.8194L42.6924 9.93295C43.4626 9.58429 44.1956 9.3228 44.8913 9.14847C45.5994 8.97414 46.3076 8.88698 47.0157 8.88698C48.3202 8.88698 49.3327 9.20451 50.0532 9.83956C50.7862 10.4622 51.1527 11.3463 51.1527 12.4919V18.8051H48.637V18.114C48.2394 18.4128 47.8108 18.6307 47.3511 18.7677C46.8915 18.9047 46.3883 18.9732 45.8417 18.9732ZM44.7236 15.9286C44.7236 16.3022 44.8851 16.601 45.2081 16.8252C45.5311 17.0369 45.9597 17.1427 46.4939 17.1427C46.9163 17.1427 47.3077 17.0929 47.6679 16.9933C48.0282 16.8812 48.3512 16.7193 48.637 16.5077V15.0881C48.3264 14.9636 48.0034 14.8702 47.6679 14.8079C47.3325 14.7457 46.9722 14.7146 46.5871 14.7146C46.0032 14.7146 45.5435 14.8266 45.2081 15.0508C44.8851 15.2624 44.7236 15.5551 44.7236 15.9286Z" fill="#47C1E7"/>
<path d="M29.3218 18.8051V5.73038H32.0239V10.9976H38.0244V5.73038H40.7265V18.8051H38.0244V13.4444H32.0239V18.8051H29.3218Z" fill="#47C1E7"/>
</svg>
